<?xml version="1.0" encoding="utf-8"?>
<svg viewBox="0 0 88 91" fill="none" xmlns="http://www.w3.org/2000/svg">
    <ellipse style="fill: rgb(255, 255, 255);" cx="43.991" cy="45" rx="43.991" ry="45.496" transform="matrix(1, 0, 0.0013060001656413078, 1, -0.0581200085580349, 0.4966860115528178)"/>
    <path fill-rule="evenodd" clip-rule="evenodd" d="M 21.784 54.428 L 21.784 56.403 L 26.047 56.403 L 26.047 54.104 C 25.586 54.05 25.118 54.024 24.641 54.028 C 23.651 54.036 22.694 54.175 21.784 54.428 Z M 21.784 52.594 C 22.696 52.377 23.648 52.259 24.625 52.251 C 25.106 52.247 25.58 52.27 26.047 52.317 L 26.047 37.169 C 25.425 37.268 24.787 37.322 24.139 37.328 C 23.335 37.335 22.548 37.268 21.784 37.132 L 21.784 52.594 Z" fill="#438D6E" style="" transform="matrix(1, 0, 0, 1, 0, 7.105427357601002e-15)"/>
    <path fill-rule="evenodd" clip-rule="evenodd" d="M 52.701 67.062 C 52.595 66.464 52.537 65.849 52.531 65.222 C 52.524 64.39 52.609 63.579 52.777 62.798 L 55.892 62.798 L 55.892 67.062 L 52.701 67.062 Z M 50.966 62.798 L 37.332 62.798 C 37.455 63.491 37.522 64.202 37.528 64.929 C 37.534 65.656 37.48 66.368 37.37 67.062 L 50.9 67.062 C 50.81 66.467 50.76 65.858 50.755 65.238 C 50.747 64.404 50.82 63.589 50.966 62.798 Z M 35.752 64.945 C 35.758 65.669 35.694 66.376 35.566 67.062 L 35.285 67.062 L 35.285 62.798 L 35.523 62.798 C 35.667 63.492 35.745 64.21 35.752 64.945 Z" fill="#438D6E" style="" transform="matrix(1, 0, 0, 1, 0, 7.105427357601002e-15)"/>
    <path fill-rule="evenodd" clip-rule="evenodd" d="M 52.371 30.779 C 53.152 31.983 54.13 33.047 55.259 33.925 L 43.989 45.423 L 54.402 56.182 C 53.388 57.219 52.548 58.427 51.932 59.76 L 39.482 46.896 L 38.038 45.404 L 39.491 43.921 L 52.371 30.779 Z M 54.144 62.046 L 53.272 61.145 C 53.81 59.759 54.62 58.508 55.638 57.458 L 57.208 59.081 L 54.144 62.046 Z" fill="#438D6E" style="" transform="matrix(1, 0, 0, 1, 0, 7.105427357601002e-15)"/>
    <path fill-rule="evenodd" clip-rule="evenodd" d="M 50.477 25.848 C 50.379 25.225 50.325 24.588 50.32 23.938 C 50.312 23.135 50.38 22.348 50.515 21.583 L 36.475 21.583 C 36.69 22.497 36.809 23.448 36.817 24.426 C 36.821 24.906 36.799 25.38 36.752 25.848 L 50.477 25.848 Z M 33.264 24.457 C 33.268 24.929 33.237 25.394 33.172 25.848 L 33.153 25.848 L 33.153 23.101 C 33.223 23.543 33.26 23.995 33.264 24.457 Z" fill="#438D6E" style="" transform="matrix(1, 0, 0, 1, 0, 7.105427357601002e-15)"/>
    <circle cx="16.247" cy="16.742" r="9.593" transform="matrix(0.008741000667214394, 0.9999620318412781, -0.9999620318412781, 0.008741000667214394, 40.69075012207031, 7.849706172943122)" stroke="#438D6E" stroke-width="5" style=""/>
    <circle cx="71.245" cy="16.261" r="9.593" transform="matrix(0.008741000667214394, 0.9999620318412781, -0.9999620318412781, 0.008741000667214394, 78.81033325195314, -47.4835205078125)" stroke="#438D6E" stroke-width="5" style=""/>
    <circle cx="71.752" cy="74.258" r="9.593" transform="matrix(0.008741000667214394, 0.9999620318412781, -0.9999620318412781, 0.008741000667214394, 137.1615447998047, -7.28451585769653)" stroke="#438D6E" stroke-width="5" style=""/>
    <path d="M 24.535 74.849 C 19.238 74.896 14.906 70.638 14.859 65.341 C 14.812 60.043 19.07 55.71 24.368 55.664 C 29.665 55.618 33.998 59.874 34.044 65.173 C 34.09 70.47 29.834 74.803 24.535 74.849 Z" stroke="#438D6E" stroke-width="5" style="" transform="matrix(1, 0, 0, 1, 0, 7.105427357601002e-15)"/>
</svg>
