<svg width="120" height="120" viewBox="0 0 88 91" fill="none" xmlns="http://www.w3.org/2000/svg">
<path fill-rule="evenodd" clip-rule="evenodd" d="M13 59.2204L13 62L19 62L19 58.765C18.3516 58.6881 17.6911 58.6514 17.0211 58.6572C15.6287 58.6694 14.2807 58.8648 13 59.2204ZM13 56.6391C14.2848 56.3355 15.6233 56.1694 16.9992 56.1573C17.6752 56.1514 18.3428 56.1829 19 56.2497L19 34.9331C18.1243 35.0721 17.2273 35.148 16.3139 35.156C15.1827 35.1658 14.0751 35.0712 13 34.881L13 56.6391Z" fill="#438D6E"/>
<path fill-rule="evenodd" clip-rule="evenodd" d="M56.5085 77C56.3594 76.1589 56.2781 75.2941 56.2704 74.4114C56.2601 73.2405 56.38 72.0988 56.6165 71L61.0001 71L61.0001 77L56.5085 77ZM54.067 71L34.8806 71C35.053 71.9747 35.147 72.9766 35.1559 73.9993C35.1649 75.0209 35.0885 76.0234 34.9335 77L53.9748 77C53.8476 76.1622 53.7781 75.3053 53.7705 74.4333C53.7602 73.2602 53.8624 72.1124 54.067 71ZM32.656 74.0212C32.6649 75.0392 32.5755 76.0351 32.3966 77L32.0001 77L32.0001 71L32.3348 71C32.5368 71.9763 32.647 72.9864 32.656 74.0212Z" fill="#438D6E"/>
<path fill-rule="evenodd" clip-rule="evenodd" d="M56.0453 25.9409C57.1443 27.6347 58.52 29.1314 60.1079 30.3676L44.2492 46.5477L58.9028 61.6886C57.4751 63.148 56.2939 64.849 55.4261 66.7237L37.9057 48.6208L35.8737 46.5212L37.919 44.4345L56.0453 25.9409ZM58.5401 69.9413L57.3132 68.6736C58.0698 66.723 59.2101 64.9625 60.6422 63.4858L62.8516 65.7686L58.5401 69.9413Z" fill="#438D6E"/>
<path fill-rule="evenodd" clip-rule="evenodd" d="M53.3801 19C53.2412 18.1243 53.1653 17.2274 53.1573 16.314C53.1474 15.1828 53.2421 14.0751 53.4323 13L33.6741 13C33.9778 14.2849 34.1439 15.6234 34.1559 16.9993C34.1618 17.6752 34.1304 18.3428 34.0635 19L53.3801 19ZM29.1561 17.043C29.1619 17.7077 29.1177 18.3613 29.027 19L29 19L29 15.134C29.0973 15.7566 29.1504 16.3941 29.1561 17.043Z" fill="#438D6E"/>
<circle cx="16.2474" cy="16.7415" r="13.5" transform="rotate(89.4992 16.2474 16.7415)" stroke="#438D6E" stroke-width="5"/>
<circle cx="71.2453" cy="16.2607" r="13.5" transform="rotate(89.4992 71.2453 16.2607)" stroke="#438D6E" stroke-width="5"/>
<circle cx="71.7522" cy="74.2585" r="13.5" transform="rotate(89.4992 71.7522 74.2585)" stroke="#438D6E" stroke-width="5"/>
<path d="M16.8723 87.9591C9.41675 88.0242 3.32 82.0331 3.25483 74.5776C3.18965 67.122 9.18075 61.0253 16.6363 60.9601C24.0919 60.8949 30.1886 66.886 30.2538 74.3416C30.319 81.7971 24.3279 87.8939 16.8723 87.9591Z" stroke="#438D6E" stroke-width="5"/>
</svg>
